# xmcd
#
# Track frame offsets:
#	150
#	18484
#	35728
#	53055
#	70154
#	86605
#	101710
#	117276
#	134680
#	148991
#	169669
#	180910
#	197596
#	207881
#
# Disc length: 3029 seconds
#
# Revision: 0
# Processed by: cddbd v1.5.2PL0 Copyright (c) Steve Scherf et al.
# Submitted via: dBpowerAMP V4.0
#
DISCID=ca0bd30e
DTITLE=Various Artist - Now And Then
DYEAR=2008
DGENRE=Beach
TTITLE0=Rickey Godfrey Band - She's the girl
TTITLE1=Mark Roberts - Head over heels in love
TTITLE2=Soul - Shes yours
TTITLE3=Craig Woolard Band - Color Away
TTITLE4=Susan Trexler - Memories and Souvenirs
TTITLE5=Quinton Mills - He put it there
TTITLE6=Gary Lowder - That old soul thing
TTITLE7=Tim Cashion - Do that again
TTITLE8=Lance Wing - To A T
TTITLE9=Debbie Mac - Someday We'll Be Together
TTITLE10=Out Of Towners - Boogie Down Blues
TTITLE11=Jonathan Burton - It Took A Woman Like You
TTITLE12=Part Time Partytime Band - Blue Monday
TTITLE13=Gary Bass - Forever Is As Far As I'll Go
EXTD=
EXTT0=
EXTT1=
EXTT2=
EXTT3=
EXTT4=
EXTT5=
EXTT6=
EXTT7=
EXTT8=
EXTT9=
EXTT10=
EXTT11=
EXTT12=
EXTT13=
PLAYORDER=
